Coordinates
version=1
nRows=42
nColumns=38
inDegrees=no

Units are S.I. units (second, meters, Newtons, ...)
If the header above contains a line with 'inDegrees', this indicates whether rotational values are in degrees (yes) or radians (no).

endheader
time	pelvis_tilt	pelvis_list	pelvis_rotation	pelvis_tx	pelvis_ty	pelvis_tz	hip_flexion_r	hip_adduction_r	hip_rotation_r	knee_angle_r	ankle_angle_r	subtalar_angle_r	mtp_angle_r	hip_flexion_l	hip_adduction_l	hip_rotation_l	knee_angle_l	ankle_angle_l	subtalar_angle_l	mtp_angle_l	lumbar_extension	lumbar_bending	lumbar_rotation	arm_flex_r	arm_add_r	arm_rot_r	elbow_flex_r	pro_sup_r	wrist_flex_r	wrist_dev_r	arm_flex_l	arm_add_l	arm_rot_l	elbow_flex_l	pro_sup_l	wrist_flex_l	wrist_dev_l
13.91	3.10456	1.34355	-1.59519	0.69264	-1.14092	0.936651	-0.346651	0.0712093	-0.067525	0.185121	-0.127883	0	0	0.0864481	-0.0654375	-0.0922053	0.299337	-0.279835	0	0	-0.457334	0.0137488	0.19019	0.501147	-0.321406	0.0642665	1.86255	1.22883	0	0	0.499091	-0.316727	0.0814228	1.6131	1.5708	0	0
13.92	3.10746	1.34319	-1.59905	0.693444	-1.14288	0.937089	-0.343801	0.0709342	-0.0673954	0.186672	-0.129829	0	0	0.0867671	-0.0627746	-0.0851449	0.297234	-0.277322	0	0	-0.458813	0.013409	0.189247	0.490305	-0.324457	0.0378703	1.86978	1.22863	0	0	0.498527	-0.315867	0.079278	1.6116	1.5708	0	0
13.93	3.11203	1.34467	-1.60492	0.694304	-1.14463	0.937368	-0.339428	0.0704514	-0.0655756	0.187591	-0.1327	0	0	0.0886047	-0.0596053	-0.0772575	0.294819	-0.273448	0	0	-0.457812	0.0112369	0.191598	0.476828	-0.337698	0.0161511	1.87729	1.2225	0	0	0.500507	-0.312894	0.0808427	1.60739	1.5708	0	0
13.94	3.11422	1.34596	-1.60924	0.695238	-1.14622	0.937656	-0.335604	0.0700874	-0.0643229	0.188485	-0.134459	0	0	0.0896695	-0.0575808	-0.0716687	0.29165	-0.270992	0	0	-0.454104	0.00928671	0.188981	0.463054	-0.346702	-0.00703127	1.87744	1.22263	0	0	0.497462	-0.313416	0.0776327	1.60391	1.5708	0	0
13.95	3.11097	1.34655	-1.60834	0.696159	-1.14768	0.938009	-0.332464	0.0719269	-0.0666506	0.197735	-0.148399	0	0	0.0912669	-0.0569334	-0.0660509	0.291641	-0.26776	0	0	-0.456001	0.00939512	0.194523	0.446948	-0.360466	-0.0330512	1.88799	1.22376	0	0	0.498281	-0.310927	0.0796375	1.60214	1.5708	0	0
13.96	3.09013	1.33977	-1.58916	0.697454	-1.14906	0.939218	-0.348215	0.0662621	-0.150706	0.172539	-0.162269	0	0	0.0838996	-0.0620695	-0.0626686	0.289975	-0.265961	0	0	-0.46585	0.0116732	0.205636	0.426425	-0.374605	-0.0658528	1.90089	1.2259	0	0	0.505183	-0.307321	0.089581	1.5967	1.5708	0	0
13.97	3.10996	1.34726	-1.61402	0.698374	-1.15034	0.938317	-0.34496	0.0819286	-0.0579963	0.179693	-0.138493	0	0	0.0934805	-0.0563752	-0.0566272	0.291756	-0.263103	0	0	-0.459826	0.00423614	0.215681	0.404678	-0.387014	-0.0968565	1.91261	1.22763	0	0	0.508042	-0.304023	0.0967184	1.59495	1.5708	0	0
13.98	3.11221	1.35388	-1.62233	0.699292	-1.15166	0.937952	-0.319722	0.068949	-0.0578954	0.18843	-0.137645	0	0	0.102266	-0.0557531	-0.0533541	0.294361	-0.25928	0	0	-0.456352	0.000862162	0.227781	0.383307	-0.400274	-0.125948	1.92414	1.22906	0	0	0.509167	-0.300182	0.102509	1.59519	1.5708	0	0
13.99	3.10355	1.3542	-1.6165	0.70003	-1.15253	0.93829	-0.314662	0.0718905	-0.0607259	0.201317	-0.151866	0	0	0.103748	-0.0575514	-0.0504131	0.296635	-0.25433	0	0	-0.459447	0.000808902	0.241985	0.356439	-0.405406	-0.165788	1.93762	1.24104	0	0	0.514118	-0.294831	0.114258	1.59223	1.5708	0	0
14	3.08612	1.35228	-1.60124	0.701488	-1.15314	0.938988	-0.312941	0.0730625	-0.155271	0.184508	-0.163024	0	0	0.102275	-0.063057	-0.0502121	0.298502	-0.250091	0	0	-0.46646	-0.0041309	0.265623	0.31866	-0.429293	-0.210167	1.96087	1.23934	0	0	0.528751	-0.284528	0.137895	1.58796	1.5708	0	0
14.01	3.09806	1.35525	-1.61876	0.701926	-1.15436	0.938389	-0.322812	0.0724425	-0.0751802	0.175586	-0.172821	0	0	0.107604	-0.0596217	-0.0476308	0.302444	-0.244687	0	0	-0.463318	-0.00432242	0.270049	0.306637	-0.425133	-0.232139	1.96161	1.25276	0	0	0.524213	-0.285983	0.138745	1.58626	1.5708	0	0
14.02	3.07257	1.36468	-1.59814	0.702855	-1.15459	0.938654	-0.285455	0.0560768	-0.136881	0.242209	-0.17732	0	0	0.117822	-0.066189	-0.0470554	0.303657	-0.242436	0	0	-0.445489	0.00282425	0.285589	0.27995	-0.447767	-0.246419	1.95851	1.25834	0	0	0.534647	-0.29463	0.12764	1.58559	1.5708	0	0
14.03	2.95481	1.32409	-1.52714	0.705521	-1.16205	0.942771	-0.321738	0.0819559	-0.0458652	0.228822	-0.188593	0	0	0.0721939	-0.101368	-0.0908629	0.300906	-0.244102	0	0	-0.511374	0.0141576	0.317059	0.320009	-0.46892	-0.228711	1.95345	1.2646	0	0	0.518482	-0.27888	0.124123	1.59193	1.5708	0	0
14.04	3.07883	1.33578	-1.66346	0.710782	-1.16298	0.937362	-0.478049	0.0863523	-0.330983	0	-0.300848	0	0	0.0904526	-0.0783012	-0.108903	0.318329	-0.228967	0	0	-0.49697	-0.0262184	0.322786	0.306925	-0.461593	-0.245431	1.96399	1.26666	0	0	0.525648	-0.292966	0.132751	1.59918	1.5708	0	0
14.05	-3.14082	1.37824	-1.6873	0.710086	-1.1569	0.933569	-0.394712	0.110901	-0.563468	0	-0.302041	0	0	0.14446	-0.0649773	-0.0657293	0.333431	-0.214015	0	0	-0.436125	-0.01813	0.282112	0.269193	-0.445711	-0.250134	1.96516	1.27248	0	0	0.495296	-0.312295	0.134828	1.60528	1.5708	0	0
14.06	3.06913	1.33681	-1.65561	0.713319	-1.16327	0.937323	-0.438555	0.114275	-0.474355	0	-0.18353	0	0	0.0934203	-0.083967	-0.110381	0.323353	-0.222215	0	0	-0.489758	-0.0267225	0.312226	0.292899	-0.462243	-0.242321	1.94955	1.28342	0	0	0.501806	-0.306125	0.122712	1.61285	1.5708	0	0
14.07	3.09472	1.33996	-1.68461	0.712907	-1.16402	0.936505	-0.444891	0.0760257	-0.411993	0	-0.21756	0	0	0.0990898	-0.0757996	-0.1076	0.325995	-0.220802	0	0	-0.487125	-0.028305	0.312002	0.288935	-0.438888	-0.25675	1.9515	1.28512	0	0	0.491934	-0.30838	0.118768	1.61867	1.5708	0	0
14.08	3.13942	1.3824	-1.69483	0.711353	-1.15847	0.933794	-0.40916	0.0796028	-0.441664	0	-0.339729	0	0	0.150912	-0.066251	-0.068466	0.337285	-0.212428	0	0	-0.430867	-0.0148621	0.275069	0.257764	-0.423537	-0.254004	1.95206	1.29939	0	0	0.453643	-0.323029	0.107951	1.63231	1.5708	0	0
14.09	-3.12415	1.38674	-1.71363	0.712021	-1.15817	0.933047	-0.408593	0.0827522	-0.459361	0	-0.336903	0	0	0.157816	-0.0638528	-0.0672822	0.342751	-0.207049	0	0	-0.424627	-0.015789	0.268694	0.252764	-0.420825	-0.248022	1.9491	1.31525	0	0	0.435523	-0.329153	0.0937339	1.64809	1.5708	0	0
14.1	-3.12287	1.38493	-1.71314	0.712138	-1.15825	0.933221	-0.413358	0.0809222	-0.454281	0	-0.351875	0	0	0.156697	-0.0630017	-0.0646875	0.344339	-0.206422	0	0	-0.425506	-0.0135377	0.26824	0.244234	-0.422186	-0.248114	1.94855	1.31775	0	0	0.424121	-0.331807	0.0882251	1.65783	1.5708	0	0
14.11	3.10326	1.36298	-1.69025	0.714411	-1.16306	0.935264	-0.428976	0.0754078	-0.389855	0	-0.367965	0	0	0.129174	-0.0772236	-0.0937503	0.341289	-0.207034	0	0	-0.460885	-0.0168969	0.29695	0.260748	-0.432549	-0.240147	1.94655	1.3204	0	0	0.420014	-0.327908	0.0733523	1.67475	1.5708	0	0
14.12	3.09391	1.34487	-1.68793	0.715432	-1.16393	0.936358	-0.445322	0.0791593	-0.397965	0	-0.3825	0	0	0.107543	-0.0801748	-0.110974	0.33958	-0.208289	0	0	-0.48333	-0.0202365	0.300275	0.262567	-0.433046	-0.238667	1.95119	1.32374	0	0	0.408147	-0.328332	0.0596505	1.69402	1.5708	0	0
14.13	3.09778	1.34345	-1.69431	0.715944	-1.16414	0.936286	-0.4492	0.0729082	-0.382964	0	-0.372953	0	0	0.105856	-0.0794607	-0.111985	0.340098	-0.208172	0	0	-0.48458	-0.021228	0.302335	0.255432	-0.430569	-0.243352	1.95956	1.32501	0	0	0.395216	-0.331389	0.0551293	1.70522	1.5708	0	0
14.14	-3.1323	1.37676	-1.70708	0.71495	-1.15764	0.933581	-0.401972	0.100765	-0.535407	0	-0.312907	0	0	0.147399	-0.0681529	-0.0727587	0.350131	-0.198765	0	0	-0.434249	-0.0137743	0.261099	0.21835	-0.446144	-0.230673	1.97187	1.33635	0	0	0.357279	-0.348396	0.0476304	1.72226	1.5708	0	0
14.15	3.12565	1.36607	-1.70619	0.716053	-1.16109	0.934627	-0.428044	0.0732452	-0.429116	0	-0.336454	0	0	0.134042	-0.0736282	-0.0875316	0.347541	-0.200474	0	0	-0.453423	-0.0176311	0.282503	0.22306	-0.449773	-0.23765	1.98673	1.3375	0	0	0.351339	-0.345376	0.0413305	1.73375	1.5708	0	0
14.16	3.11454	1.35938	-1.70404	0.716789	-1.1618	0.935177	-0.436213	0.0711424	-0.38889	0	-0.350834	0	0	0.125016	-0.0771375	-0.0987896	0.346003	-0.202427	0	0	-0.463047	-0.0196409	0.291969	0.214438	-0.448643	-0.249231	2.00707	1.33864	0	0	0.341315	-0.344375	0.036321	1.74646	1.5708	0	0
14.17	3.10132	1.35497	-1.69529	0.717211	-1.16201	0.935701	-0.436552	0.0689906	-0.368681	0	-0.360112	0	0	0.119109	-0.0807898	-0.104595	0.345487	-0.204548	0	0	-0.469769	-0.0189764	0.298051	0.20189	-0.447307	-0.260262	2.02851	1.33993	0	0	0.330382	-0.343765	0.0319	1.75868	1.5708	0	0
14.18	3.10668	1.35211	-1.70325	0.717756	-1.16177	0.93556	-0.441539	0.0674864	-0.365324	0	-0.338665	0	0	0.115887	-0.0804515	-0.110163	0.346208	-0.207786	0	0	-0.474581	-0.0224384	0.302826	0.188723	-0.427263	-0.281831	2.05341	1.3442	0	0	0.319572	-0.343019	0.0271301	1.77343	1.5708	0	0
14.19	-3.10075	1.38972	-1.73648	0.715997	-1.155	0.932183	-0.410318	0.0800882	-0.46572	0	-0.323547	0	0	0.164001	-0.0639822	-0.0664266	0.35746	-0.200231	0	0	-0.41807	-0.0126322	0.26197	0.144387	-0.426523	-0.276074	2.06778	1.35234	0	0	0.284035	-0.358441	0.0230129	1.78131	1.5708	0	0
14.2	3.11708	1.37704	-1.69951	0.716836	-1.15819	0.934155	-0.420591	0.0718943	-0.406074	0	-0.344983	0	0	0.145638	-0.0777052	-0.0883153	0.352751	-0.203116	0	0	-0.440327	-0.00599581	0.29598	0.144617	-0.404035	-0.298089	2.08102	1.35859	0	0	0.29257	-0.371773	0.000842436	1.80256	1.56435	0	0
14.21	-3.1074	1.38385	-1.73068	0.716403	-1.15457	0.932572	-0.42118	0.0751645	-0.444028	0	-0.369955	0	0	0.158031	-0.0647485	-0.0667465	0.358591	-0.202682	0	0	-0.426368	-0.00991684	0.262983	0.120329	-0.425181	-0.283772	2.09427	1.36483	0	0	0.261895	-0.36068	0.0129571	1.80193	1.5708	0	0
14.22	-3.09584	1.38923	-1.74353	0.717161	-1.15376	0.93186	-0.411169	0.0801618	-0.455581	0	-0.322638	0	0	0.164907	-0.0651424	-0.068995	0.362714	-0.201494	0	0	-0.419721	-0.0107573	0.263998	0.106368	-0.421932	-0.286571	2.106	1.37281	0	0	0.249148	-0.364733	0.00863389	1.81237	1.5708	0	0
14.23	-3.09412	1.3924	-1.7457	0.717948	-1.15366	0.931583	-0.43153	0.0984106	-0.406389	0	-0.309137	0	0	0.169392	-0.0664658	-0.0670379	0.364938	-0.202278	0	0	-0.417183	-0.010475	0.265641	0.0953602	-0.419315	-0.289909	2.11608	1.37427	0	0	0.240528	-0.368446	0.00613748	1.82127	1.5708	0	0
14.24	-3.0925	1.37815	-1.74013	0.717171	-1.15262	0.932396	-0.410717	0.0879624	-0.512559	0	-0.302265	0	0	0.154544	-0.0619608	-0.0655165	0.365784	-0.202769	0	0	-0.432988	-0.00958656	0.257963	0.0927897	-0.398623	-0.302236	2.12953	1.38563	0	0	0.231797	-0.369568	0.000564936	1.83497	1.5708	0	0
14.25	3.13032	1.37155	-1.71169	0.718287	-1.1562	0.934234	-0.425555	0.082189	-0.400736	0	-0.29596	0	0	0.142433	-0.0762589	-0.086851	0.360631	-0.206727	0	0	-0.449703	-0.00795997	0.29336	0.0878009	-0.430735	-0.301929	2.13684	1.38766	0	0	0.241527	-0.386447	-0.020304	1.85887	1.5567	0	0
14.26	3.13101	1.36715	-1.71719	0.71833	-1.15581	0.934486	-0.438017	0.0639448	-0.380273	0	-0.31744	0	0	0.136608	-0.0761182	-0.0960341	0.360317	-0.208718	0	0	-0.455145	-0.00888388	0.297757	0.0811661	-0.432188	-0.304459	2.14789	1.38898	0	0	0.233175	-0.386565	-0.0231683	1.86767	1.54996	0	0
14.27	-3.09965	1.39772	-1.7377	0.716929	-1.15115	0.93212	-0.412524	0.0762851	-0.396835	0	-0.334488	0	0	0.176194	-0.0651228	-0.0620494	0.36901	-0.208268	0	0	-0.414429	0.00082215	0.265775	0.0572085	-0.418281	-0.299954	2.16093	1.39578	0	0	0.206218	-0.401647	-0.0271144	1.87731	1.52721	0	0
14.28	-3.09847	1.39632	-1.73871	0.717154	-1.15018	0.932203	-0.412507	0.0802645	-0.392068	0	-0.29489	0	0	0.174575	-0.0652462	-0.0646711	0.370803	-0.208586	0	0	-0.41612	0.00158775	0.265177	0.0493383	-0.416142	-0.300908	2.17203	1.40337	0	0	0.196168	-0.404993	-0.0304162	1.8866	1.51807	0	0
14.29	3.09682	1.36578	-1.64356	0.714866	-1.14997	0.93737	-0.308037	0.0588589	-0.130697	0.198336	-0.189455	0	0	0.13475	-0.074875	-0.0575241	0.356652	-0.221704	0	0	-0.456956	0.0223858	0.262488	0.0488358	-0.424346	-0.304365	2.18217	1.40938	0	0	0.189899	-0.397715	-0.0343246	1.89314	1.51876	0	0
14.3	2.9517	1.34437	-1.534	0.715382	-1.15395	0.941424	-0.308905	0.0857154	-0.0472185	0.239135	-0.17172	0	0	0.107404	-0.1117	-0.089298	0.352217	-0.228916	0	0	-0.495926	0.0431939	0.304699	0.0582825	-0.444273	-0.310203	2.1901	1.41278	0	0	0.189005	-0.380209	-0.0396319	1.90004	1.52118	0	0
14.31	3.09855	1.36504	-1.64632	0.715339	-1.14866	0.937492	-0.310686	0.0533379	-0.123843	0.204608	-0.194511	0	0	0.135245	-0.0752167	-0.0599882	0.361571	-0.224123	0	0	-0.459497	0.0227316	0.263701	0.035264	-0.423389	-0.307977	2.19763	1.41727	0	0	0.172377	-0.400159	-0.0431795	1.90846	1.51559	0	0
14.32	3.13197	1.36161	-1.68141	0.715482	-1.1487	0.936604	-0.309185	0.0663718	-0.041382	0.210044	-0.14252	0	0	0.134762	-0.0672866	-0.0610214	0.367158	-0.221656	0	0	-0.464697	0.0136124	0.259296	0.0364356	-0.423701	-0.306077	2.20405	1.42073	0	0	0.15838	-0.370053	-0.03065	1.89671	1.5708	0	0
